<svg width="74" height="83" viewBox="0 0 74 83" fill="none" xmlns="http://www.w3.org/2000/svg">
<path d="M25 10.5C22.8514 6.40021 22.3201 4.10095 22.5 0C27.9608 0.163051 30.7219 1.18211 35 5C36.8105 8.71524 37.2311 10.7953 37 14.5C32.1789 14.9347 29.5448 14.1509 25 10.5Z" fill="#3BACED"/>
<path d="M36 20H37.5C38 17 39 14.5 42.5 11C45 8.5 48.0222 6.95143 52.5 6L51.5 2C46.672 3.20671 44.1348 4.45628 40 8C37.3436 12.1666 36.4745 14.7961 36 20Z" fill="#3BACED"/>
<path d="M53 17C48.7675 17.4128 46.5768 18.0645 43 20C47.2369 21.9812 49.6459 22.6267 54 23C58.9582 22.9055 61.4731 22.3538 65.5 20.5C60.7876 18.1463 58.0509 17.386 53 17Z" fill="#5FB4E7"/>
<path d="M54.5 33.5C47.9836 30.031 44.7951 27.4235 40 21.5L41.5 20.5C46.4906 23.4613 49.3346 24.5762 54.5 25.5C60.5968 25.6996 63.6727 25.3844 68.5 24C71.7794 27.3176 72.7956 29.3897 73 33.5C66.166 35.5976 62.1147 35.5893 54.5 33.5Z" fill="url(#paint0_linear_1_13)"/>
<path d="M45.5 42C39.2695 34.4354 37.5178 30.2808 37 23L39 22C43.3032 30.1726 47.0278 33.5545 56.5 37C63.132 38.9912 66.8538 39.4106 73.5 38.5C73.3783 45.3855 72.7019 48.99 70.5 55C60.0107 52.3503 54.5386 49.5106 45.5 42Z" fill="url(#paint1_linear_1_13)"/>
<path d="M36 23.5L34.5 22.5C29.675 34.2084 31.1573 41.7571 38.0041 55C44.4397 65.3796 48.9488 69.8994 58.0041 76.5C64.0128 70.978 66.227 67.6788 68.5041 61.5C56.6733 55.9054 51.1522 51.8009 43.0041 43C38.0824 35.2915 35.9555 30.6528 36 23.5Z" fill="url(#paint2_linear_1_13)"/>
<path d="M32.302 21L33.802 22.5C28.5392 33.613 27.7286 40.3875 32.302 54C38.847 67.9269 42.9091 72.9936 50.302 81C49.4569 81.7996 48.8792 82.2169 46.302 82.5C45.2034 82.4879 44.4332 82.3775 41.302 81C39.2725 79.8472 37.9745 79.491 35.302 79.5C32.5745 80.1273 31.1372 80.7852 28.802 82.5C22.0338 66.8823 17.802 49.5 19.302 40.5C20.802 31.5 26.8754 24.2537 32.302 21Z" fill="url(#paint3_linear_1_13)"/>
<path d="M0 48C6 26 17.5 23 27.5 19L30.5 21C21.3395 27.5 16.7538 31.8606 15 48C15.3541 62.1217 16.7251 69.1047 20.5 80.5C19.3135 81.6172 3.65411 67.4477 0 48Z" fill="url(#paint4_linear_1_13)"/>
<path d="M7 20.5C1.69161 24.7821 0 36.5 0 36.5C0 36.5 5.18051 28.2396 10 24.5C15.2474 20.4284 25.5 17.5 25.5 17.5C25.5 17.5 12.6967 15.9047 7 20.5Z" fill="#11699C"/>
<defs>
<linearGradient id="paint0_linear_1_13" x1="56.5" y1="20.5" x2="56.5" y2="35.0701" gradientUnits="userSpaceOnUse">
<stop stopColor="#63B8EA"/>
<stop offset="1" stopColor="#4EA7DC"/>
</linearGradient>
<linearGradient id="paint1_linear_1_13" x1="55.25" y1="22" x2="55.25" y2="55" gradientUnits="userSpaceOnUse">
<stop stopColor="#4AA4D9"/>
<stop offset="1" stopColor="#4EA7DC"/>
</linearGradient>
<linearGradient id="paint2_linear_1_13" x1="50.2521" y1="23" x2="50.2521" y2="76.5" gradientUnits="userSpaceOnUse">
<stop stopColor="#40A0D5"/>
<stop offset="1" stopColor="#136B9E"/>
</linearGradient>
<linearGradient id="paint3_linear_1_13" x1="34.651" y1="21" x2="34.651" y2="82.5" gradientUnits="userSpaceOnUse">
<stop stopColor="#429ED3"/>
<stop offset="1" stopColor="#1771A4"/>
</linearGradient>
<linearGradient id="paint4_linear_1_13" x1="15.25" y1="19" x2="15.25" y2="80.5617" gradientUnits="userSpaceOnUse">
<stop stopColor="#3D9CD1"/>
<stop offset="1" stopColor="#11699C"/>
</linearGradient>
</defs>
</svg>
